<svg width="16" height="16" viewBox="0 0 16 16" fill="none" xmlns="http://www.w3.org/2000/svg">
<path d="M5.75725 1.07127C5.99404 1.21334 6.07082 1.52047 5.92875 1.75726L3.3831 6.00001H12.6169L10.0713 1.75726C9.92918 1.52047 10.006 1.21334 10.2428 1.07127C10.4795 0.929194 10.7867 1.00598 10.9287 1.24277L13.7831 6.00001H15C15.5523 6.00001 16 6.44773 16 7.00001V8.00001C16 8.5523 15.5523 9.00001 15 9.00001V13.5003C15 14.881 13.8806 16 12.5 16H3.5C2.11937 16 1 14.881 1 13.5003V9.00001C0.447715 9.00001 0 8.5523 0 8.00001V7.00001C0 6.44773 0.447715 6.00001 1 6.00001H2.2169L5.07125 1.24277C5.21333 1.00598 5.52046 0.929194 5.75725 1.07127ZM2 9.00001V13.5003C2 14.3286 2.67149 15 3.5 15H12.5C13.3285 15 14 14.3286 14 13.5003V9.00001H2ZM1 7.00001V8.00001H15V7.00001H1ZM4 10C4.27614 10 4.5 10.2239 4.5 10.5V13.5C4.5 13.7762 4.27614 14 4 14C3.72386 14 3.5 13.7762 3.5 13.5V10.5C3.5 10.2239 3.72386 10 4 10ZM6 10C6.27614 10 6.5 10.2239 6.5 10.5V13.5C6.5 13.7762 6.27614 14 6 14C5.72386 14 5.5 13.7762 5.5 13.5V10.5C5.5 10.2239 5.72386 10 6 10ZM8 10C8.27614 10 8.5 10.2239 8.5 10.5V13.5C8.5 13.7762 8.27614 14 8 14C7.72386 14 7.5 13.7762 7.5 13.5V10.5C7.5 10.2239 7.72386 10 8 10ZM10 10C10.2761 10 10.5 10.2239 10.5 10.5V13.5C10.5 13.7762 10.2761 14 10 14C9.72386 14 9.5 13.7762 9.5 13.5V10.5C9.5 10.2239 9.72386 10 10 10ZM12 10C12.2761 10 12.5 10.2239 12.5 10.5V13.5C12.5 13.7762 12.2761 14 12 14C11.7239 14 11.5 13.7762 11.5 13.5V10.5C11.5 10.2239 11.7239 10 12 10Z" fill="#333232"/>
</svg>
