<svg width="16" height="17" viewBox="0 0 16 17" fill="none" xmlns="http://www.w3.org/2000/svg">
<g id="caret-left-square">
<g id="Vector">
<path d="M15 14.2109C15 14.7632 14.5523 15.2109 14 15.2109L2 15.2109C1.44772 15.2109 0.999999 14.7632 0.999999 14.2109L1 2.21094C1 1.65865 1.44772 1.21094 2 1.21094L14 1.21094C14.5523 1.21094 15 1.65865 15 2.21094L15 14.2109ZM16 2.21094C16 1.10637 15.1046 0.210937 14 0.210937L2 0.210937C0.895431 0.210937 -3.91405e-08 1.10637 -8.74228e-08 2.21094L-6.11959e-07 14.2109C-6.60242e-07 15.3155 0.89543 16.2109 2 16.2109L14 16.2109C15.1046 16.2109 16 15.3155 16 14.2109L16 2.21094Z" fill="white"/>
<path d="M3.54389 10.4158C3.62455 10.5954 3.80311 10.7109 4.00001 10.7109L12 10.7109C12.1969 10.7109 12.3755 10.5954 12.4561 10.4158C12.5368 10.2361 12.5045 10.0259 12.3737 9.87876L8.37371 5.37876C8.27883 5.27201 8.14283 5.21094 8.00001 5.21094C7.85719 5.21094 7.72119 5.27201 7.6263 5.37876L3.6263 9.87876C3.49549 10.0259 3.46323 10.2361 3.54389 10.4158Z" fill="white"/>
</g>
</g>
</svg>
